<?xml version="1.0" standalone="no"?>
<!DOCTYPE svg PUBLIC "-//W3C//DTD SVG 20010904//EN"
 "http://www.w3.org/TR/2001/REC-SVG-20010904/DTD/svg10.dtd">
<svg version="1.0" xmlns="http://www.w3.org/2000/svg"
 width="200.000000pt" height="200.000000pt" viewBox="0 0 200.000000 200.000000"
 preserveAspectRatio="xMidYMid meet">

<g transform="translate(0.000000,200.000000) scale(0.100000,-0.100000)"
fill="#008fde" stroke="none">
<path d="M775 1980 c-132 -30 -258 -84 -345 -149 -71 -52 -201 -185 -250 -257
-193 -279 -235 -639 -111 -948 124 -310 389 -532 726 -611 100 -23 328 -20
430 5 111 28 201 64 281 112 250 149 400 353 471 643 23 90 25 115 20 250 -5
163 -22 248 -78 379 -68 160 -211 329 -365 431 -169 113 -348 165 -564 164
-92 0 -160 -6 -215 -19z m0 -105 c186 -49 347 -216 385 -402 16 -77 8 -195
-19 -264 -28 -73 -66 -129 -150 -224 -114 -127 -161 -239 -161 -380 1 -248
188 -464 429 -494 40 -5 80 -7 89 -4 10 4 13 1 10 -8 -6 -18 -136 -55 -246
-70 -330 -44 -684 109 -891 385 -215 285 -256 668 -107 991 87 188 242 353
428 456 62 34 138 38 233 14z"/>
<path d="M626 1562 c29 -83 13 -118 -92 -197 -99 -75 -155 -133 -210 -221 -63
-102 -85 -171 -91 -289 -6 -118 10 -195 63 -295 84 -161 249 -300 460 -389
108 -45 125 -47 69 -8 -157 108 -240 258 -239 432 0 110 23 172 108 290 66 91
92 138 112 204 34 114 26 227 -23 325 -25 50 -97 133 -144 167 l-26 19 13 -38z
m-127 -1033 c24 -63 78 -156 123 -212 16 -21 28 -41 24 -44 -11 -11 -103 53
-166 116 -73 73 -90 112 -90 203 0 59 18 131 53 206 l21 47 7 -130 c4 -97 12
-144 28 -186z"/>
</g>
</svg>
