<?xml version="1.0" standalone="no"?>
<!DOCTYPE svg PUBLIC "-//W3C//DTD SVG 20010904//EN"
 "http://www.w3.org/TR/2001/REC-SVG-20010904/DTD/svg10.dtd">
<svg version="1.0" xmlns="http://www.w3.org/2000/svg"
 width="768.000000pt" height="768.000000pt" viewBox="0 0 768.000000 768.000000"
 preserveAspectRatio="xMidYMid meet">

<g transform="translate(0.000000,768.000000) scale(0.100000,-0.100000)"
fill="#000000" stroke="none">
<path d="M3075 5173 c-75 -11 -156 -38 -220 -71 -100 -51 -228 -181 -277 -282
-160 -324 -24 -703 307 -861 76 -36 186 -61 256 -57 l54 3 7 47 c27 195 162
380 339 467 46 23 116 48 154 57 39 9 76 18 83 20 15 4 15 49 -2 144 -43 238
-207 427 -437 504 -74 25 -202 39 -264 29z" fill="#eb246b"/>
<path d="M4485 5174 c-11 -2 -45 -9 -75 -15 -73 -14 -203 -78 -265 -129 -145
-121 -235 -302 -235 -472 0 -62 2 -68 21 -68 12 0 49 -7 83 -16 234 -60 421
-255 473 -496 l17 -81 80 5 c217 14 430 155 524 349 53 108 72 182 72 287 0
189 -82 360 -235 490 -55 48 -185 114 -255 130 -54 13 -177 22 -205 16z" fill="#4ad0a0"/>
<path d="M2990 3764 c-225 -60 -406 -241 -466 -465 -22 -84 -22 -234 1 -319
55 -211 223 -387 430 -453 58 -18 93 -22 200 -22 114 1 139 4 202 27 251 90
432 340 433 599 l0 56 -80 17 c-194 41 -356 168 -443 346 -28 56 -52 123 -59
163 l-13 67 -75 -1 c-41 0 -100 -7 -130 -15z" fill="#5e00f4"/>
<path d="M4490 3754 c0 -47 -27 -134 -66 -214 -28 -57 -57 -95 -123 -160 -101
-101 -194 -152 -322 -178 l-82 -17 7 -84 c20 -267 199 -494 451 -574 56 -18
94 -22 190 -22 96 0 134 4 190 22 305 97 496 407 442 718 -42 236 -213 435
-437 506 -36 12 -106 23 -157 26 l-93 6 0 -29z" fill="#0066ff"/>
</g>
</svg>
