<svg width="16" height="16" viewBox="0 0 16 16" fill="none" xmlns="http://www.w3.org/2000/svg">
    <path d="M14.1902 3.21558C14.5636 3.69713 14.8748 4.22528 15.1393 4.78451L7.95105 10.0816L4.93262 8.18645V5.91849L7.93549 7.7981L14.1902 3.21558Z" fill="#21A038"/>
    <path d="M1.86727 8.03114C1.86727 7.9224 1.86727 7.8292 1.88283 7.72046L0.0624339 7.62726C0.0624339 7.75153 0.046875 7.89134 0.046875 8.01561C0.046875 10.1904 0.933733 12.1632 2.36515 13.5923L3.65654 12.303C2.55186 11.2156 1.86727 9.70881 1.86727 8.03114Z" fill="url(#paint0_linear)"/>
    <path d="M7.93532 1.97287C8.04424 1.97287 8.13759 1.97287 8.2465 1.98841L8.33986 0.170929C8.21538 0.170929 8.07536 0.155396 7.95088 0.155396C5.77264 0.155396 3.79665 1.04083 2.36523 2.46996L3.65662 3.75928C4.74575 2.65637 6.27052 1.97287 7.93532 1.97287Z" fill="url(#paint1_linear)"/>
    <path d="M7.93529 14.0894C7.82638 14.0894 7.73303 14.0894 7.62411 14.0739L7.53076 15.8913C7.65523 15.8913 7.79526 15.9069 7.91973 15.9069C10.098 15.9069 12.074 15.0214 13.5054 13.5923L12.214 12.303C11.1249 13.4214 9.61566 14.0894 7.93529 14.0894Z" fill="url(#paint2_linear)"/>
    <path d="M11.358 3.02915L12.8984 1.89517C11.5447 0.807793 9.81769 0.139832 7.93506 0.139832V1.95731C9.21089 1.97284 10.3934 2.36119 11.358 3.02915Z" fill="url(#paint3_linear)"/>
    <path d="M15.8392 8.03109C15.8392 7.54953 15.7925 7.08351 15.7147 6.61749L14.0188 7.87575C14.0188 7.92235 14.0188 7.98448 14.0188 8.03109C14.0188 9.81749 13.2409 11.4175 12.0117 12.5204L13.2409 13.8719C14.8279 12.4427 15.8392 10.3456 15.8392 8.03109Z" fill="#21A038"/>
    <path d="M7.93511 14.0893C6.14584 14.0893 4.54327 13.3126 3.43859 12.0854L2.08496 13.3126C3.53194 14.9126 5.61683 15.9068 7.93511 15.9068V14.0893Z" fill="url(#paint4_linear)"/>
    <path d="M3.87437 3.54176L2.64521 2.19031C1.04265 3.63497 0.046875 5.71652 0.046875 8.03108H1.86727C1.86727 6.26021 2.64521 4.64468 3.87437 3.54176Z" fill="url(#paint5_linear)"/>
    <defs>
        <linearGradient id="paint0_linear" x1="2.17685" y1="13.3712" x2="0.318949" y2="8.00937" gradientUnits="userSpaceOnUse">
            <stop offset="0.1444" stop-color="#F2E913"/>
            <stop offset="0.3037" stop-color="#E7E518"/>
            <stop offset="0.5823" stop-color="#CADB26"/>
            <stop offset="0.891" stop-color="#A3CD39"/>
        </linearGradient>
        <linearGradient id="paint1_linear" x1="2.88414" y1="2.25924" x2="7.60513" y2="0.463037" gradientUnits="userSpaceOnUse">
            <stop offset="0.0592" stop-color="#0FA8E0"/>
            <stop offset="0.5385" stop-color="#0099F9"/>
            <stop offset="0.9234" stop-color="#0291EB"/>
        </linearGradient>
        <linearGradient id="paint2_linear" x1="7.42387" y1="14.3565" x2="13.0506" y2="13.0868" gradientUnits="userSpaceOnUse">
            <stop offset="0.1226" stop-color="#A3CD39"/>
            <stop offset="0.2846" stop-color="#86C339"/>
            <stop offset="0.8693" stop-color="#21A038"/>
        </linearGradient>
        <linearGradient id="paint3_linear" x1="7.56104" y1="1.30269" x2="12.2403" y2="2.74414" gradientUnits="userSpaceOnUse">
            <stop offset="0.0566" stop-color="#0291EB"/>
            <stop offset="0.79" stop-color="#0C8ACB"/>
        </linearGradient>
        <linearGradient id="paint4_linear" x1="2.54782" y1="13.6078" x2="7.57247" y2="15.4822" gradientUnits="userSpaceOnUse">
            <stop offset="0.1324" stop-color="#F2E913"/>
            <stop offset="0.2977" stop-color="#EBE716"/>
            <stop offset="0.5306" stop-color="#D9E01F"/>
            <stop offset="0.8023" stop-color="#BBD62D"/>
            <stop offset="0.9829" stop-color="#A3CD39"/>
        </linearGradient>
        <linearGradient id="paint5_linear" x1="1.43202" y1="8.25061" x2="3.44107" y2="3.03271" gradientUnits="userSpaceOnUse">
            <stop offset="0.0698" stop-color="#A3CD39"/>
            <stop offset="0.2599" stop-color="#81C55F"/>
            <stop offset="0.9216" stop-color="#0FA8E0"/>
        </linearGradient>
    </defs>
</svg>
